<svg width="600" height="800" viewBox="0 0 600 800" fill="none" xmlns="http://www.w3.org/2000/svg">
<path d="M510.219 87.0609C452.161 29.0281 376.088 0 299.989 0C223.914 0 147.816 29.0281 89.7594 87.0609C-2.77026 179.591 -26.8671 320.753 33.3625 429.053C102.478 553.295 299.989 800 299.989 800C299.989 800 497.523 553.295 566.639 429.053C626.867 320.752 602.77 179.591 510.219 87.0609ZM299.989 477.881C200.281 477.881 119.422 397.022 119.422 297.339C119.422 197.559 200.281 116.7 299.989 116.7C399.72 116.7 480.58 197.559 480.58 297.339C480.58 397.022 399.72 477.881 299.989 477.881Z" fill="#142257"/>
</svg>
